# MagicaVoxel @ Ephtracy

# group
g Railing

# material
mtllib Railing.mtl
usemtl palette

# normals
vn -1 0 0
vn 1 0 0
vn 0 0 1
vn 0 0 -1
vn 0 -1 0
vn 0 1 0

# texcoords
vt 0.970703 0.5
vt 0.974609 0.5
vt 0.978516 0.5

# verts
v -17 0 2
v -17 0 -1
v -17 24 2
v -17 24 -1
v -16 0 3
v -16 0 2
v -16 0 -1
v -16 0 -2
v -16 24 3
v -16 24 2
v -16 24 -1
v -16 24 -2
v -16 25 2
v -16 25 -1
v -10 16 2
v -10 16 1
v -10 18 2
v -10 18 1
v -10 18 -0
v -10 19 1
v -10 19 -0
v -9 13 2
v -9 13 1
v -9 16 2
v -9 16 1
v -8 11 2
v -8 11 1
v -8 13 2
v -8 13 1
v -7 10 1
v -7 10 -0
v -7 11 1
v -7 11 -0
v -6 9 1
v -6 9 -0
v -6 10 1
v -6 10 -0
v -5 8 2
v -5 8 1
v -5 9 2
v -5 9 1
v -3 7 2
v -3 7 1
v -3 8 2
v -3 8 1
v -2 6 2
v -2 6 1
v -2 7 2
v -2 7 1
v 2 7 2
v 2 7 1
v 2 8 2
v 2 8 1
v 3 8 2
v 3 8 1
v 3 9 2
v 3 9 1
v 5 9 1
v 5 9 -0
v 5 10 1
v 5 10 -0
v 6 10 1
v 6 10 -0
v 6 11 1
v 6 11 -0
v 7 11 2
v 7 11 1
v 7 13 2
v 7 13 1
v 8 13 2
v 8 13 1
v 8 16 2
v 8 16 1
v 9 16 2
v 9 16 1
v 9 18 2
v 9 18 1
v 9 18 -0
v 9 19 1
v 9 19 -0
v 10 19 1
v 10 19 -0
v 10 21 1
v 10 21 -0
v 11 20 2
v 11 20 1
v 11 20 -0
v 11 20 -1
v 11 21 2
v 11 21 1
v 11 21 -0
v 11 21 -1
v 11 22 1
v 11 22 -0
v 12 0 2
v 12 0 -1
v 12 19 1
v 12 19 -0
v 12 20 2
v 12 20 1
v 12 20 -0
v 12 20 -1
v 12 21 2
v 12 21 1
v 12 21 -0
v 12 21 -1
v 12 22 1
v 12 22 -0
v 12 24 2
v 12 24 -1
v 13 0 3
v 13 0 2
v 13 0 -1
v 13 0 -2
v 13 24 3
v 13 24 2
v 13 24 -1
v 13 24 -2
v 13 25 2
v 13 25 -1
v -13 0 3
v -13 0 2
v -13 0 -1
v -13 0 -2
v -13 24 3
v -13 24 2
v -13 24 -1
v -13 24 -2
v -13 25 2
v -13 25 -1
v -12 0 2
v -12 0 -1
v -12 19 1
v -12 19 -0
v -12 20 2
v -12 20 1
v -12 20 -0
v -12 20 -1
v -12 21 2
v -12 21 1
v -12 21 -0
v -12 21 -1
v -12 22 1
v -12 22 -0
v -12 24 2
v -12 24 -1
v -11 20 2
v -11 20 1
v -11 20 -0
v -11 20 -1
v -11 21 2
v -11 21 1
v -11 21 -0
v -11 21 -1
v -11 22 1
v -11 22 -0
v -10 19 1
v -10 19 -0
v -10 21 1
v -10 21 -0
v -9 16 2
v -9 16 1
v -9 18 2
v -9 18 1
v -9 18 -0
v -9 19 1
v -9 19 -0
v -8 13 2
v -8 13 1
v -8 16 2
v -8 16 1
v -7 11 2
v -7 11 1
v -7 13 2
v -7 13 1
v -6 10 1
v -6 10 -0
v -6 11 1
v -6 11 -0
v -5 9 1
v -5 9 -0
v -5 10 1
v -5 10 -0
v -3 8 2
v -3 8 1
v -3 9 2
v -3 9 1
v -2 7 2
v -2 7 1
v -2 8 2
v -2 8 1
v 2 6 2
v 2 6 1
v 2 7 2
v 2 7 1
v 3 7 2
v 3 7 1
v 3 8 2
v 3 8 1
v 5 8 2
v 5 8 1
v 5 9 2
v 5 9 1
v 6 9 1
v 6 9 -0
v 6 10 1
v 6 10 -0
v 7 10 1
v 7 10 -0
v 7 11 1
v 7 11 -0
v 8 11 2
v 8 11 1
v 8 13 2
v 8 13 1
v 9 13 2
v 9 13 1
v 9 16 2
v 9 16 1
v 10 16 2
v 10 16 1
v 10 18 2
v 10 18 1
v 10 18 -0
v 10 19 1
v 10 19 -0
v 16 0 3
v 16 0 2
v 16 0 -1
v 16 0 -2
v 16 24 3
v 16 24 2
v 16 24 -1
v 16 24 -2
v 16 25 2
v 16 25 -1
v 17 0 2
v 17 0 -1
v 17 24 2
v 17 24 -1
v -16 0 3
v -16 24 3
v -13 0 3
v -13 24 3
v 13 0 3
v 13 24 3
v 16 0 3
v 16 24 3
v -17 0 2
v -17 24 2
v -16 0 2
v -16 24 2
v -16 25 2
v -13 0 2
v -13 24 2
v -13 25 2
v -12 0 2
v -12 20 2
v -12 21 2
v -12 24 2
v -11 20 2
v -11 21 2
v -10 16 2
v -10 18 2
v -9 13 2
v -9 16 2
v -9 18 2
v -8 11 2
v -8 13 2
v -8 16 2
v -7 11 2
v -7 13 2
v -5 8 2
v -5 9 2
v -3 7 2
v -3 8 2
v -3 9 2
v -2 6 2
v -2 7 2
v -2 8 2
v 2 6 2
v 2 7 2
v 2 8 2
v 3 7 2
v 3 8 2
v 3 9 2
v 5 8 2
v 5 9 2
v 7 11 2
v 7 13 2
v 8 11 2
v 8 13 2
v 8 16 2
v 9 13 2
v 9 16 2
v 9 18 2
v 10 16 2
v 10 18 2
v 11 20 2
v 11 21 2
v 12 0 2
v 12 20 2
v 12 21 2
v 12 24 2
v 13 0 2
v 13 24 2
v 13 25 2
v 16 0 2
v 16 24 2
v 16 25 2
v 17 0 2
v 17 24 2
v -12 19 1
v -12 20 1
v -12 21 1
v -12 22 1
v -11 19 1
v -11 20 1
v -11 21 1
v -11 22 1
v -10 18 1
v -10 19 1
v -10 21 1
v -9 18 1
v -9 19 1
v -7 10 1
v -7 11 1
v -6 9 1
v -6 10 1
v -6 11 1
v -5 9 1
v -5 10 1
v 5 9 1
v 5 10 1
v 6 9 1
v 6 10 1
v 6 11 1
v 7 10 1
v 7 11 1
v 9 18 1
v 9 19 1
v 10 18 1
v 10 19 1
v 10 21 1
v 11 19 1
v 11 20 1
v 11 21 1
v 11 22 1
v 12 19 1
v 12 20 1
v 12 21 1
v 12 22 1
v -10 16 1
v -10 18 1
v -9 13 1
v -9 16 1
v -9 18 1
v -8 11 1
v -8 13 1
v -8 16 1
v -7 11 1
v -7 13 1
v -5 8 1
v -5 9 1
v -3 7 1
v -3 8 1
v -3 9 1
v -2 6 1
v -2 7 1
v -2 8 1
v 2 6 1
v 2 7 1
v 2 8 1
v 3 7 1
v 3 8 1
v 3 9 1
v 5 8 1
v 5 9 1
v 7 11 1
v 7 13 1
v 8 11 1
v 8 13 1
v 8 16 1
v 9 13 1
v 9 16 1
v 9 18 1
v 10 16 1
v 10 18 1
v -12 19 -0
v -12 20 -0
v -12 21 -0
v -12 22 -0
v -11 19 -0
v -11 20 -0
v -11 21 -0
v -11 22 -0
v -10 18 -0
v -10 19 -0
v -10 21 -0
v -9 18 -0
v -9 19 -0
v -7 10 -0
v -7 11 -0
v -6 9 -0
v -6 10 -0
v -6 11 -0
v -5 9 -0
v -5 10 -0
v 5 9 -0
v 5 10 -0
v 6 9 -0
v 6 10 -0
v 6 11 -0
v 7 10 -0
v 7 11 -0
v 9 18 -0
v 9 19 -0
v 10 18 -0
v 10 19 -0
v 10 21 -0
v 11 19 -0
v 11 20 -0
v 11 21 -0
v 11 22 -0
v 12 19 -0
v 12 20 -0
v 12 21 -0
v 12 22 -0
v -17 0 -1
v -17 24 -1
v -16 0 -1
v -16 24 -1
v -16 25 -1
v -13 0 -1
v -13 24 -1
v -13 25 -1
v -12 0 -1
v -12 20 -1
v -12 21 -1
v -12 24 -1
v -11 20 -1
v -11 21 -1
v 11 20 -1
v 11 21 -1
v 12 0 -1
v 12 20 -1
v 12 21 -1
v 12 24 -1
v 13 0 -1
v 13 24 -1
v 13 25 -1
v 16 0 -1
v 16 24 -1
v 16 25 -1
v 17 0 -1
v 17 24 -1
v -16 0 -2
v -16 24 -2
v -13 0 -2
v -13 24 -2
v 13 0 -2
v 13 24 -2
v 16 0 -2
v 16 24 -2
v -16 0 3
v -13 0 3
v 13 0 3
v 16 0 3
v -17 0 2
v -16 0 2
v -13 0 2
v -12 0 2
v 12 0 2
v 13 0 2
v 16 0 2
v 17 0 2
v -17 0 -1
v -16 0 -1
v -13 0 -1
v -12 0 -1
v 12 0 -1
v 13 0 -1
v 16 0 -1
v 17 0 -1
v -16 0 -2
v -13 0 -2
v 13 0 -2
v 16 0 -2
v -2 6 2
v 2 6 2
v -2 6 1
v 2 6 1
v -3 7 2
v -2 7 2
v 2 7 2
v 3 7 2
v -3 7 1
v -2 7 1
v 2 7 1
v 3 7 1
v -5 8 2
v -3 8 2
v 3 8 2
v 5 8 2
v -5 8 1
v -3 8 1
v 3 8 1
v 5 8 1
v -6 9 1
v -5 9 1
v 5 9 1
v 6 9 1
v -6 9 -0
v -5 9 -0
v 5 9 -0
v 6 9 -0
v -7 10 1
v -6 10 1
v 6 10 1
v 7 10 1
v -7 10 -0
v -6 10 -0
v 6 10 -0
v 7 10 -0
v -8 11 2
v -7 11 2
v 7 11 2
v 8 11 2
v -8 11 1
v -7 11 1
v 7 11 1
v 8 11 1
v -9 13 2
v -8 13 2
v 8 13 2
v 9 13 2
v -9 13 1
v -8 13 1
v 8 13 1
v 9 13 1
v -10 16 2
v -9 16 2
v 9 16 2
v 10 16 2
v -10 16 1
v -9 16 1
v 9 16 1
v 10 16 1
v -10 18 1
v -9 18 1
v 9 18 1
v 10 18 1
v -10 18 -0
v -9 18 -0
v 9 18 -0
v 10 18 -0
v -12 19 1
v -11 19 1
v -10 19 1
v 10 19 1
v 11 19 1
v 12 19 1
v -12 19 -0
v -11 19 -0
v -10 19 -0
v 10 19 -0
v 11 19 -0
v 12 19 -0
v -12 20 2
v -11 20 2
v 11 20 2
v 12 20 2
v -12 20 1
v -11 20 1
v 11 20 1
v 12 20 1
v -12 20 -0
v -11 20 -0
v 11 20 -0
v 12 20 -0
v -12 20 -1
v -11 20 -1
v 11 20 -1
v 12 20 -1
v -2 7 2
v 2 7 2
v -2 7 1
v 2 7 1
v -3 8 2
v -2 8 2
v 2 8 2
v 3 8 2
v -3 8 1
v -2 8 1
v 2 8 1
v 3 8 1
v -5 9 2
v -3 9 2
v 3 9 2
v 5 9 2
v -5 9 1
v -3 9 1
v 3 9 1
v 5 9 1
v -6 10 1
v -5 10 1
v 5 10 1
v 6 10 1
v -6 10 -0
v -5 10 -0
v 5 10 -0
v 6 10 -0
v -7 11 1
v -6 11 1
v 6 11 1
v 7 11 1
v -7 11 -0
v -6 11 -0
v 6 11 -0
v 7 11 -0
v -8 13 2
v -7 13 2
v 7 13 2
v 8 13 2
v -8 13 1
v -7 13 1
v 7 13 1
v 8 13 1
v -9 16 2
v -8 16 2
v 8 16 2
v 9 16 2
v -9 16 1
v -8 16 1
v 8 16 1
v 9 16 1
v -10 18 2
v -9 18 2
v 9 18 2
v 10 18 2
v -10 18 1
v -9 18 1
v 9 18 1
v 10 18 1
v -10 19 1
v -9 19 1
v 9 19 1
v 10 19 1
v -10 19 -0
v -9 19 -0
v 9 19 -0
v 10 19 -0
v -12 21 2
v -11 21 2
v 11 21 2
v 12 21 2
v -12 21 1
v -11 21 1
v -10 21 1
v 10 21 1
v 11 21 1
v 12 21 1
v -12 21 -0
v -11 21 -0
v -10 21 -0
v 10 21 -0
v 11 21 -0
v 12 21 -0
v -12 21 -1
v -11 21 -1
v 11 21 -1
v 12 21 -1
v -12 22 1
v -11 22 1
v 11 22 1
v 12 22 1
v -12 22 -0
v -11 22 -0
v 11 22 -0
v 12 22 -0
v -16 24 3
v -13 24 3
v 13 24 3
v 16 24 3
v -17 24 2
v -16 24 2
v -13 24 2
v -12 24 2
v 12 24 2
v 13 24 2
v 16 24 2
v 17 24 2
v -17 24 -1
v -16 24 -1
v -13 24 -1
v -12 24 -1
v 12 24 -1
v 13 24 -1
v 16 24 -1
v 17 24 -1
v -16 24 -2
v -13 24 -2
v 13 24 -2
v 16 24 -2
v -16 25 2
v -13 25 2
v 13 25 2
v 16 25 2
v -16 25 -1
v -13 25 -1
v 13 25 -1
v 16 25 -1

# faces
f 3/1/1 2/1/1 1/1/1
f 4/1/1 2/1/1 3/1/1
f 9/1/1 6/1/1 5/1/1
f 10/1/1 6/1/1 9/1/1
f 11/1/1 8/1/1 7/1/1
f 12/1/1 8/1/1 11/1/1
f 13/1/1 11/1/1 10/1/1
f 14/1/1 11/1/1 13/1/1
f 17/2/1 16/2/1 15/2/1
f 18/2/1 16/2/1 17/2/1
f 20/2/1 19/2/1 18/2/1
f 21/2/1 19/2/1 20/2/1
f 24/2/1 23/2/1 22/2/1
f 25/2/1 23/2/1 24/2/1
f 28/2/1 27/2/1 26/2/1
f 29/2/1 27/2/1 28/2/1
f 32/2/1 31/2/1 30/2/1
f 33/2/1 31/2/1 32/2/1
f 36/2/1 35/2/1 34/2/1
f 37/2/1 35/2/1 36/2/1
f 40/2/1 39/2/1 38/2/1
f 41/2/1 39/2/1 40/2/1
f 44/2/1 43/2/1 42/2/1
f 45/2/1 43/2/1 44/2/1
f 48/2/1 47/2/1 46/2/1
f 49/2/1 47/2/1 48/2/1
f 52/2/1 51/2/1 50/2/1
f 53/2/1 51/2/1 52/2/1
f 56/2/1 55/2/1 54/2/1
f 57/2/1 55/2/1 56/2/1
f 60/2/1 59/2/1 58/2/1
f 61/2/1 59/2/1 60/2/1
f 64/2/1 63/2/1 62/2/1
f 65/2/1 63/2/1 64/2/1
f 68/2/1 67/2/1 66/2/1
f 69/2/1 67/2/1 68/2/1
f 72/2/1 71/2/1 70/2/1
f 73/2/1 71/2/1 72/2/1
f 76/2/1 75/2/1 74/2/1
f 77/2/1 75/2/1 76/2/1
f 79/2/1 78/2/1 77/2/1
f 80/2/1 78/2/1 79/2/1
f 83/2/1 82/2/1 81/2/1
f 84/2/1 82/2/1 83/2/1
f 89/3/1 86/3/1 85/3/1
f 90/3/1 86/3/1 89/3/1
f 91/3/1 88/3/1 87/3/1
f 92/3/1 88/3/1 91/3/1
f 93/3/1 91/3/1 90/3/1
f 94/3/1 91/3/1 93/3/1
f 97/1/1 96/1/1 95/1/1
f 98/1/1 96/1/1 97/1/1
f 99/1/1 97/1/1 95/1/1
f 100/1/1 97/1/1 99/1/1
f 101/1/1 96/1/1 98/1/1
f 102/1/1 96/1/1 101/1/1
f 107/1/1 104/1/1 103/1/1
f 108/1/1 106/1/1 105/1/1
f 109/1/1 107/1/1 103/1/1
f 109/1/1 108/1/1 107/1/1
f 110/1/1 106/1/1 108/1/1
f 110/1/1 108/1/1 109/1/1
f 115/1/1 112/1/1 111/1/1
f 116/1/1 112/1/1 115/1/1
f 117/1/1 114/1/1 113/1/1
f 118/1/1 114/1/1 117/1/1
f 119/1/1 117/1/1 116/1/1
f 120/1/1 117/1/1 119/1/1
f 121/1/2 122/1/2 125/1/2
f 125/1/2 122/1/2 126/1/2
f 123/1/2 124/1/2 127/1/2
f 127/1/2 124/1/2 128/1/2
f 126/1/2 127/1/2 129/1/2
f 129/1/2 127/1/2 130/1/2
f 131/1/2 132/1/2 133/1/2
f 133/1/2 132/1/2 134/1/2
f 131/1/2 133/1/2 135/1/2
f 135/1/2 133/1/2 136/1/2
f 134/1/2 132/1/2 137/1/2
f 137/1/2 132/1/2 138/1/2
f 139/1/2 140/1/2 143/1/2
f 141/1/2 142/1/2 144/1/2
f 139/1/2 143/1/2 145/1/2
f 143/1/2 144/1/2 145/1/2
f 144/1/2 142/1/2 146/1/2
f 145/1/2 144/1/2 146/1/2
f 147/3/2 148/3/2 151/3/2
f 151/3/2 148/3/2 152/3/2
f 149/3/2 150/3/2 153/3/2
f 153/3/2 150/3/2 154/3/2
f 152/3/2 153/3/2 155/3/2
f 155/3/2 153/3/2 156/3/2
f 157/2/2 158/2/2 159/2/2
f 159/2/2 158/2/2 160/2/2
f 161/2/2 162/2/2 163/2/2
f 163/2/2 162/2/2 164/2/2
f 164/2/2 165/2/2 166/2/2
f 166/2/2 165/2/2 167/2/2
f 168/2/2 169/2/2 170/2/2
f 170/2/2 169/2/2 171/2/2
f 172/2/2 173/2/2 174/2/2
f 174/2/2 173/2/2 175/2/2
f 176/2/2 177/2/2 178/2/2
f 178/2/2 177/2/2 179/2/2
f 180/2/2 181/2/2 182/2/2
f 182/2/2 181/2/2 183/2/2
f 184/2/2 185/2/2 186/2/2
f 186/2/2 185/2/2 187/2/2
f 188/2/2 189/2/2 190/2/2
f 190/2/2 189/2/2 191/2/2
f 192/2/2 193/2/2 194/2/2
f 194/2/2 193/2/2 195/2/2
f 196/2/2 197/2/2 198/2/2
f 198/2/2 197/2/2 199/2/2
f 200/2/2 201/2/2 202/2/2
f 202/2/2 201/2/2 203/2/2
f 204/2/2 205/2/2 206/2/2
f 206/2/2 205/2/2 207/2/2
f 208/2/2 209/2/2 210/2/2
f 210/2/2 209/2/2 211/2/2
f 212/2/2 213/2/2 214/2/2
f 214/2/2 213/2/2 215/2/2
f 216/2/2 217/2/2 218/2/2
f 218/2/2 217/2/2 219/2/2
f 220/2/2 221/2/2 222/2/2
f 222/2/2 221/2/2 223/2/2
f 223/2/2 224/2/2 225/2/2
f 225/2/2 224/2/2 226/2/2
f 227/1/2 228/1/2 231/1/2
f 231/1/2 228/1/2 232/1/2
f 229/1/2 230/1/2 233/1/2
f 233/1/2 230/1/2 234/1/2
f 232/1/2 233/1/2 235/1/2
f 235/1/2 233/1/2 236/1/2
f 237/1/2 238/1/2 239/1/2
f 239/1/2 238/1/2 240/1/2
f 243/1/3 242/1/3 241/1/3
f 244/1/3 242/1/3 243/1/3
f 247/1/3 246/1/3 245/1/3
f 248/1/3 246/1/3 247/1/3
f 251/1/3 250/1/3 249/1/3
f 252/1/3 250/1/3 251/1/3
f 255/1/3 253/1/3 252/1/3
f 256/1/3 253/1/3 255/1/3
f 257/1/3 255/1/3 254/1/3
f 258/1/3 255/1/3 257/1/3
f 259/1/3 255/1/3 258/1/3
f 260/1/3 255/1/3 259/1/3
f 261/3/3 259/3/3 258/3/3
f 262/3/3 259/3/3 261/3/3
f 266/2/3 264/2/3 263/2/3
f 267/2/3 264/2/3 266/2/3
f 269/2/3 266/2/3 265/2/3
f 270/2/3 266/2/3 269/2/3
f 271/2/3 269/2/3 268/2/3
f 272/2/3 269/2/3 271/2/3
f 276/2/3 274/2/3 273/2/3
f 277/2/3 274/2/3 276/2/3
f 279/2/3 276/2/3 275/2/3
f 280/2/3 276/2/3 279/2/3
f 281/2/3 279/2/3 278/2/3
f 282/2/3 279/2/3 281/2/3
f 284/2/3 283/2/3 282/2/3
f 285/2/3 283/2/3 284/2/3
f 287/2/3 286/2/3 285/2/3
f 288/2/3 286/2/3 287/2/3
f 291/2/3 290/2/3 289/2/3
f 292/2/3 290/2/3 291/2/3
f 294/2/3 293/2/3 292/2/3
f 295/2/3 293/2/3 294/2/3
f 297/2/3 296/2/3 295/2/3
f 298/2/3 296/2/3 297/2/3
f 302/3/3 300/3/3 299/3/3
f 303/3/3 300/3/3 302/3/3
f 305/1/3 303/1/3 302/1/3
f 305/1/3 304/1/3 303/1/3
f 305/1/3 302/1/3 301/1/3
f 306/1/3 304/1/3 305/1/3
f 309/1/3 307/1/3 306/1/3
f 310/1/3 307/1/3 309/1/3
f 311/1/3 309/1/3 308/1/3
f 312/1/3 309/1/3 311/1/3
f 317/3/3 314/3/3 313/3/3
f 318/3/3 314/3/3 317/3/3
f 319/3/3 316/3/3 315/3/3
f 320/3/3 316/3/3 319/3/3
f 322/2/3 318/2/3 317/2/3
f 322/2/3 319/2/3 318/2/3
f 323/2/3 319/2/3 322/2/3
f 324/2/3 322/2/3 321/2/3
f 325/2/3 322/2/3 324/2/3
f 329/2/3 327/2/3 326/2/3
f 330/2/3 327/2/3 329/2/3
f 331/2/3 329/2/3 328/2/3
f 332/2/3 329/2/3 331/2/3
f 335/2/3 334/2/3 333/2/3
f 336/2/3 334/2/3 335/2/3
f 338/2/3 337/2/3 336/2/3
f 339/2/3 337/2/3 338/2/3
f 342/2/3 341/2/3 340/2/3
f 343/2/3 341/2/3 342/2/3
f 345/2/3 344/2/3 343/2/3
f 346/2/3 344/2/3 345/2/3
f 347/2/3 344/2/3 346/2/3
f 349/3/3 346/3/3 345/3/3
f 350/3/3 346/3/3 349/3/3
f 351/3/3 348/3/3 347/3/3
f 352/3/3 348/3/3 351/3/3
f 353/2/4 354/2/4 356/2/4
f 356/2/4 354/2/4 357/2/4
f 355/2/4 356/2/4 359/2/4
f 359/2/4 356/2/4 360/2/4
f 358/2/4 359/2/4 361/2/4
f 361/2/4 359/2/4 362/2/4
f 363/2/4 364/2/4 366/2/4
f 366/2/4 364/2/4 367/2/4
f 365/2/4 366/2/4 369/2/4
f 369/2/4 366/2/4 370/2/4
f 368/2/4 369/2/4 371/2/4
f 371/2/4 369/2/4 372/2/4
f 372/2/4 373/2/4 374/2/4
f 374/2/4 373/2/4 375/2/4
f 375/2/4 376/2/4 377/2/4
f 377/2/4 376/2/4 378/2/4
f 379/2/4 380/2/4 381/2/4
f 381/2/4 380/2/4 382/2/4
f 382/2/4 383/2/4 384/2/4
f 384/2/4 383/2/4 385/2/4
f 385/2/4 386/2/4 387/2/4
f 387/2/4 386/2/4 388/2/4
f 389/3/4 390/3/4 393/3/4
f 393/3/4 390/3/4 394/3/4
f 391/3/4 392/3/4 395/3/4
f 395/3/4 392/3/4 396/3/4
f 393/2/4 394/2/4 398/2/4
f 394/2/4 395/2/4 398/2/4
f 398/2/4 395/2/4 399/2/4
f 397/2/4 398/2/4 400/2/4
f 400/2/4 398/2/4 401/2/4
f 402/2/4 403/2/4 405/2/4
f 405/2/4 403/2/4 406/2/4
f 404/2/4 405/2/4 407/2/4
f 407/2/4 405/2/4 408/2/4
f 409/2/4 410/2/4 411/2/4
f 411/2/4 410/2/4 412/2/4
f 412/2/4 413/2/4 414/2/4
f 414/2/4 413/2/4 415/2/4
f 416/2/4 417/2/4 418/2/4
f 418/2/4 417/2/4 419/2/4
f 419/2/4 420/2/4 421/2/4
f 421/2/4 420/2/4 422/2/4
f 422/2/4 420/2/4 423/2/4
f 421/3/4 422/3/4 425/3/4
f 425/3/4 422/3/4 426/3/4
f 423/3/4 424/3/4 427/3/4
f 427/3/4 424/3/4 428/3/4
f 429/1/4 430/1/4 431/1/4
f 431/1/4 430/1/4 432/1/4
f 432/1/4 433/1/4 435/1/4
f 435/1/4 433/1/4 436/1/4
f 434/1/4 435/1/4 437/1/4
f 437/1/4 435/1/4 438/1/4
f 438/1/4 435/1/4 439/1/4
f 439/1/4 435/1/4 440/1/4
f 438/3/4 439/3/4 441/3/4
f 441/3/4 439/3/4 442/3/4
f 443/3/4 444/3/4 446/3/4
f 446/3/4 444/3/4 447/3/4
f 446/1/4 447/1/4 449/1/4
f 447/1/4 448/1/4 449/1/4
f 445/1/4 446/1/4 449/1/4
f 449/1/4 448/1/4 450/1/4
f 450/1/4 451/1/4 453/1/4
f 453/1/4 451/1/4 454/1/4
f 452/1/4 453/1/4 455/1/4
f 455/1/4 453/1/4 456/1/4
f 457/1/4 458/1/4 459/1/4
f 459/1/4 458/1/4 460/1/4
f 461/1/4 462/1/4 463/1/4
f 463/1/4 462/1/4 464/1/4
f 470/1/5 466/1/5 465/1/5
f 471/1/5 466/1/5 470/1/5
f 474/1/5 468/1/5 467/1/5
f 475/1/5 468/1/5 474/1/5
f 477/1/5 472/1/5 471/1/5
f 477/1/5 470/1/5 469/1/5
f 477/1/5 471/1/5 470/1/5
f 478/1/5 472/1/5 477/1/5
f 479/1/5 472/1/5 478/1/5
f 480/1/5 472/1/5 479/1/5
f 481/1/5 476/1/5 475/1/5
f 481/1/5 475/1/5 474/1/5
f 481/1/5 474/1/5 473/1/5
f 482/1/5 476/1/5 481/1/5
f 483/1/5 476/1/5 482/1/5
f 484/1/5 476/1/5 483/1/5
f 485/1/5 479/1/5 478/1/5
f 486/1/5 479/1/5 485/1/5
f 487/1/5 483/1/5 482/1/5
f 488/1/5 483/1/5 487/1/5
f 491/2/5 490/2/5 489/2/5
f 492/2/5 490/2/5 491/2/5
f 497/2/5 494/2/5 493/2/5
f 498/2/5 494/2/5 497/2/5
f 499/2/5 496/2/5 495/2/5
f 500/2/5 496/2/5 499/2/5
f 505/2/5 502/2/5 501/2/5
f 506/2/5 502/2/5 505/2/5
f 507/2/5 504/2/5 503/2/5
f 508/2/5 504/2/5 507/2/5
f 513/2/5 510/2/5 509/2/5
f 514/2/5 510/2/5 513/2/5
f 515/2/5 512/2/5 511/2/5
f 516/2/5 512/2/5 515/2/5
f 521/2/5 518/2/5 517/2/5
f 522/2/5 518/2/5 521/2/5
f 523/2/5 520/2/5 519/2/5
f 524/2/5 520/2/5 523/2/5
f 529/2/5 526/2/5 525/2/5
f 530/2/5 526/2/5 529/2/5
f 531/2/5 528/2/5 527/2/5
f 532/2/5 528/2/5 531/2/5
f 537/2/5 534/2/5 533/2/5
f 538/2/5 534/2/5 537/2/5
f 539/2/5 536/2/5 535/2/5
f 540/2/5 536/2/5 539/2/5
f 545/2/5 542/2/5 541/2/5
f 546/2/5 542/2/5 545/2/5
f 547/2/5 544/2/5 543/2/5
f 548/2/5 544/2/5 547/2/5
f 553/2/5 550/2/5 549/2/5
f 554/2/5 550/2/5 553/2/5
f 555/2/5 552/2/5 551/2/5
f 556/2/5 552/2/5 555/2/5
f 563/3/5 558/3/5 557/3/5
f 564/2/5 559/2/5 558/2/5
f 564/3/5 558/3/5 563/3/5
f 565/2/5 559/2/5 564/2/5
f 566/2/5 561/2/5 560/2/5
f 567/3/5 562/3/5 561/3/5
f 567/2/5 561/2/5 566/2/5
f 568/3/5 562/3/5 567/3/5
f 573/3/5 570/3/5 569/3/5
f 574/3/5 570/3/5 573/3/5
f 575/3/5 572/3/5 571/3/5
f 576/3/5 572/3/5 575/3/5
f 581/3/5 578/3/5 577/3/5
f 582/3/5 578/3/5 581/3/5
f 583/3/5 580/3/5 579/3/5
f 584/3/5 580/3/5 583/3/5
f 585/2/6 586/2/6 587/2/6
f 587/2/6 586/2/6 588/2/6
f 589/2/6 590/2/6 593/2/6
f 593/2/6 590/2/6 594/2/6
f 591/2/6 592/2/6 595/2/6
f 595/2/6 592/2/6 596/2/6
f 597/2/6 598/2/6 601/2/6
f 601/2/6 598/2/6 602/2/6
f 599/2/6 600/2/6 603/2/6
f 603/2/6 600/2/6 604/2/6
f 605/2/6 606/2/6 609/2/6
f 609/2/6 606/2/6 610/2/6
f 607/2/6 608/2/6 611/2/6
f 611/2/6 608/2/6 612/2/6
f 613/2/6 614/2/6 617/2/6
f 617/2/6 614/2/6 618/2/6
f 615/2/6 616/2/6 619/2/6
f 619/2/6 616/2/6 620/2/6
f 621/2/6 622/2/6 625/2/6
f 625/2/6 622/2/6 626/2/6
f 623/2/6 624/2/6 627/2/6
f 627/2/6 624/2/6 628/2/6
f 629/2/6 630/2/6 633/2/6
f 633/2/6 630/2/6 634/2/6
f 631/2/6 632/2/6 635/2/6
f 635/2/6 632/2/6 636/2/6
f 637/2/6 638/2/6 641/2/6
f 641/2/6 638/2/6 642/2/6
f 639/2/6 640/2/6 643/2/6
f 643/2/6 640/2/6 644/2/6
f 645/2/6 646/2/6 649/2/6
f 649/2/6 646/2/6 650/2/6
f 647/2/6 648/2/6 651/2/6
f 651/2/6 648/2/6 652/2/6
f 653/3/6 654/3/6 657/3/6
f 657/3/6 654/3/6 658/3/6
f 655/3/6 656/3/6 661/3/6
f 661/3/6 656/3/6 662/3/6
f 658/2/6 659/2/6 664/2/6
f 664/2/6 659/2/6 665/2/6
f 660/2/6 661/2/6 666/2/6
f 666/2/6 661/2/6 667/2/6
f 663/3/6 664/3/6 669/3/6
f 669/3/6 664/3/6 670/3/6
f 667/3/6 668/3/6 671/3/6
f 671/3/6 668/3/6 672/3/6
f 673/3/6 674/3/6 677/3/6
f 677/3/6 674/3/6 678/3/6
f 675/3/6 676/3/6 679/3/6
f 679/3/6 676/3/6 680/3/6
f 681/1/6 682/1/6 686/1/6
f 686/1/6 682/1/6 687/1/6
f 683/1/6 684/1/6 690/1/6
f 690/1/6 684/1/6 691/1/6
f 685/1/6 686/1/6 693/1/6
f 693/1/6 686/1/6 694/1/6
f 687/1/6 688/1/6 695/1/6
f 695/1/6 688/1/6 696/1/6
f 689/1/6 690/1/6 697/1/6
f 697/1/6 690/1/6 698/1/6
f 691/1/6 692/1/6 699/1/6
f 699/1/6 692/1/6 700/1/6
f 694/1/6 695/1/6 701/1/6
f 701/1/6 695/1/6 702/1/6
f 698/1/6 699/1/6 703/1/6
f 703/1/6 699/1/6 704/1/6
f 705/1/6 706/1/6 709/1/6
f 709/1/6 706/1/6 710/1/6
f 707/1/6 708/1/6 711/1/6
f 711/1/6 708/1/6 712/1/6
